<svg width="33" height="33" viewBox="0 0 60 60" fill="none" xmlns="http://www.w3.org/2000/svg">
<circle cx="30" cy="30" r="29" stroke="#121212" stroke-width="2"/>
<path d="M40.8164 25.8125H29.7969L24.668 18.8065C24.4648 18.4704 24.1771 18.2856 23.8047 18.252C23.4323 18.2184 23.0768 18.336 22.7383 18.6048C22.2305 19.1425 22.1966 19.6801 22.6367 20.2177L26.6484 25.8125H19.1836C18.5742 25.8125 18.0579 26.0225 17.6348 26.4425C17.2116 26.8626 17 27.3582 17 27.9294V29.0383C17 29.9792 17.4401 30.6176 18.3203 30.9536L21.3164 40.0766C21.4518 40.5471 21.7227 40.9755 22.1289 41.3619C22.5352 41.7483 22.9922 41.9415 23.5 41.9415H36.5C37.0078 41.9415 37.4648 41.7483 37.8711 41.3619C38.2773 40.9755 38.5482 40.5471 38.6836 40.0766L41.6797 31.0544C42.5599 30.7184 43 30.08 43 29.1391V28.0302C43 27.3918 42.7884 26.8626 42.3652 26.4425C41.9421 26.0225 41.4258 25.8125 40.8164 25.8125ZM19.1836 27.9294H28.2734L29.0352 28.9375C29.1029 28.9375 29.1367 28.9711 29.1367 29.0383H19.1836V27.9294ZM36.6016 39.4718V39.5726C36.6016 39.6062 36.5846 39.6398 36.5508 39.6734C36.5169 39.707 36.5 39.7406 36.5 39.7742H23.6016C23.5339 39.7742 23.5 39.707 23.5 39.5726L20.707 31.1552H39.293L36.6016 39.4718ZM30.9648 29.0383C31.2018 28.6351 31.3203 28.2655 31.3203 27.9294H40.8164V29.0383H30.9648ZM24.5664 37.8589C24.6003 38.0941 24.7357 38.2957 24.9727 38.4637C25.2096 38.6317 25.4466 38.7157 25.6836 38.7157H25.8867C26.1576 38.6485 26.3776 38.4805 26.5469 38.2117C26.7161 37.9429 26.75 37.6741 26.6484 37.4052L25.582 33.121C25.5143 32.8522 25.3451 32.6337 25.0742 32.4657C24.8034 32.2977 24.5326 32.2641 24.2617 32.3649C23.9909 32.4321 23.7708 32.6001 23.6016 32.869C23.4323 33.1378 23.3984 33.3898 23.5 33.625L24.5664 37.8589ZM34.1133 38.7157H34.3164C34.5534 38.7157 34.7904 38.6317 35.0273 38.4637C35.2643 38.2957 35.3997 38.0941 35.4336 37.8589L36.5 33.5242C36.5677 33.2554 36.5254 32.9866 36.373 32.7177C36.2207 32.4489 36.0091 32.2977 35.7383 32.2641C35.0273 32.1297 34.5872 32.3817 34.418 33.0202L33.3516 37.3044C33.1484 37.9765 33.4023 38.4469 34.1133 38.7157ZM30 38.7157C30.7109 38.7157 31.0664 38.3461 31.0664 37.6069V33.3226C31.0664 32.6169 30.7109 32.2641 30 32.2641C29.2891 32.2641 28.9336 32.6169 28.9336 33.3226V37.6069C28.9336 38.3461 29.2891 38.7157 30 38.7157Z" fill="black"/>
</svg>
