<svg width="20" height="18" viewBox="0 0 20 18" fill="none" xmlns="http://www.w3.org/2000/svg"><path fill-rule="evenodd" clip-rule="evenodd" d="M13.985.25c-1.313 0-2.176.152-3.164.612-.291.136-.569.294-.832.474A5.967 5.967 0 0 0 9.201.89C8.196.416 7.29.25 6.023.25 2.548.25 0 3.017 0 6.6c0 2.685 1.546 5.235 4.39 7.671 1.473 1.262 3.349 2.508 4.701 3.175l.909.448.909-.448c1.352-.668 3.228-1.913 4.701-3.175C18.454 11.835 20 9.285 20 6.6 20 3.053 17.43.264 13.985.25zM17.5 6.6c0 1.83-1.174 3.766-3.516 5.773-1.244 1.065-2.831 2.132-3.984 2.73-1.153-.598-2.74-1.665-3.984-2.73C3.674 10.366 2.5 8.43 2.5 6.6c0-2.246 1.477-3.85 3.523-3.85.925 0 1.475.1 2.113.401.368.174.691.4.97.684l.898.913.89-.92c.286-.295.613-.527.984-.7.617-.288 1.13-.378 2.102-.378 2.018.008 3.52 1.638 3.52 3.85z" fill="#00B366"/></svg>