<svg width="33" height="33" viewBox="0 0 60 60" fill="none" xmlns="http://www.w3.org/2000/svg">
<circle cx="30" cy="30" r="29" stroke="#121212" stroke-width="2"/>
<path d="M38.75 41.375H38.6012C21.4075 40.3863 18.9662 25.8788 18.625 21.4513C18.5975 21.107 18.6382 20.7607 18.7448 20.4322C18.8513 20.1037 19.0217 19.7995 19.246 19.537C19.4703 19.2744 19.7443 19.0587 20.0521 18.9022C20.36 18.7457 20.6957 18.6515 21.04 18.625H25.8612C26.2117 18.6247 26.5543 18.7296 26.8444 18.9261C27.1346 19.1227 27.3591 19.4019 27.4887 19.7275L28.8187 23C28.9468 23.3181 28.9786 23.6668 28.9101 24.0028C28.8417 24.3388 28.676 24.6473 28.4337 24.89L26.57 26.7713C26.8611 28.4257 27.6534 29.9507 28.8397 31.1401C30.0259 32.3295 31.5489 33.1258 33.2025 33.4212L35.1012 31.54C35.3476 31.3004 35.659 31.1386 35.9966 31.0748C36.3343 31.011 36.6832 31.048 37 31.1813L40.2987 32.5025C40.6195 32.6363 40.8931 32.8625 41.0847 33.1523C41.2764 33.4422 41.3775 33.7825 41.375 34.13V38.75C41.375 39.4462 41.0984 40.1139 40.6062 40.6062C40.1139 41.0984 39.4462 41.375 38.75 41.375ZM21.25 20.375C21.0179 20.375 20.7954 20.4672 20.6313 20.6313C20.4672 20.7954 20.375 21.0179 20.375 21.25V21.32C20.7775 26.5 23.3587 38.75 38.6975 39.625C38.8125 39.6321 38.9277 39.6164 39.0366 39.5789C39.1454 39.5414 39.2459 39.4827 39.332 39.4063C39.4182 39.3299 39.4884 39.2372 39.5387 39.1336C39.589 39.03 39.6183 38.9175 39.625 38.8025V34.13L36.3262 32.8087L33.815 35.3025L33.395 35.25C25.7825 34.2962 24.75 26.6838 24.75 26.605L24.6975 26.185L27.1825 23.6738L25.87 20.375H21.25Z" fill="#121212"/>
</svg>
