<svg width="33" height="33" viewBox="0 0 60 60" fill="none" xmlns="http://www.w3.org/2000/svg">
<circle cx="30" cy="30" r="29" stroke="#121212" stroke-width="2"/>
<path d="M41.3547 37.2981L37.2371 33.1805L34.07 31.872C35.1246 30.3724 35.6895 28.5833 35.6875 26.75C35.6875 21.8218 31.6782 17.8125 26.75 17.8125C21.8218 17.8125 17.8125 21.8218 17.8125 26.75C17.8125 31.6782 21.8218 35.6875 26.75 35.6875C28.5993 35.6896 30.4031 35.1149 31.9103 34.0434L33.2154 37.2019L37.3328 41.3197C37.5969 41.5838 37.9104 41.7933 38.2554 41.9362C38.6004 42.0791 38.9702 42.1527 39.3437 42.1527C39.7171 42.1527 40.0869 42.0792 40.4319 41.9363C40.777 41.7934 41.0905 41.5839 41.3546 41.3198C41.6186 41.0558 41.8281 40.7423 41.971 40.3972C42.114 40.0522 42.1875 39.6824 42.1876 39.309C42.1876 38.9355 42.114 38.5657 41.9711 38.2207C41.8282 37.8757 41.6187 37.5622 41.3547 37.2981V37.2981ZM19.4375 26.75C19.4375 22.718 22.718 19.4375 26.75 19.4375C30.782 19.4375 34.0625 22.718 34.0625 26.75C34.0625 30.782 30.782 34.0625 26.75 34.0625C22.718 34.0625 19.4375 30.782 19.4375 26.75ZM40.2056 40.1707C39.9768 40.3989 39.6669 40.5271 39.3437 40.5271C39.0206 40.5271 38.7107 40.3989 38.4819 40.1707L34.5935 36.2822L33.3802 33.3453L36.3172 34.5587L40.2057 38.4471C40.4339 38.6759 40.562 38.9858 40.562 39.3089C40.562 39.632 40.4338 39.9419 40.2056 40.1707V40.1707Z" fill="#121212"/>
</svg>
