<svg width="33" height="33" viewBox="0 0 60 60" fill="none" xmlns="http://www.w3.org/2000/svg">
<circle cx="30" cy="30" r="29" stroke="#121212" stroke-width="2"/>
<path d="M36.2018 28.375C36.6506 28.5104 37.0779 28.6942 37.4837 28.9263C37.8895 29.1585 38.3145 29.5115 38.7585 29.9855C39.2025 30.4594 39.582 31.018 39.8971 31.6613C40.2122 32.3045 40.4748 33.1363 40.6849 34.1568C40.895 35.1773 41 36.3211 41 37.5882C41 39.0778 40.5226 40.3521 39.5677 41.4113C38.6128 42.4704 37.4622 43 36.1159 43H23.8841C22.5378 43 21.3872 42.4704 20.4323 41.4113C19.4774 40.3521 19 39.0778 19 37.5882C19 36.3211 19.105 35.1773 19.3151 34.1568C19.5252 33.1363 19.7878 32.3045 20.1029 31.6613C20.418 31.018 20.7975 30.4594 21.2415 29.9855C21.6855 29.5115 22.1105 29.1585 22.5163 28.9263C22.9221 28.6942 23.3494 28.5104 23.7982 28.375C23.0438 27.1659 22.6667 25.8504 22.6667 24.4286C22.6667 23.4226 22.86 22.4626 23.2467 21.5485C23.6335 20.6345 24.1563 19.8437 24.8151 19.1763C25.474 18.5089 26.2546 17.9794 27.1569 17.5876C28.0592 17.1959 29.0069 17 30 17C30.9931 17 31.9408 17.1959 32.8431 17.5876C33.7454 17.9794 34.526 18.5089 35.1849 19.1763C35.8438 19.8437 36.3665 20.6345 36.7533 21.5485C37.14 22.4626 37.3333 23.4226 37.3333 24.4286C37.3333 25.8504 36.9562 27.1659 36.2018 28.375ZM30 18.8571C28.4818 18.8571 27.1855 19.4012 26.1113 20.4894C25.0371 21.5776 24.5 22.8906 24.5 24.4286C24.5 25.9665 25.0371 27.2796 26.1113 28.3677C27.1855 29.4559 28.4818 30 30 30C31.5182 30 32.8145 29.4559 33.8887 28.3677C34.9629 27.2796 35.5 25.9665 35.5 24.4286C35.5 22.8906 34.9629 21.5776 33.8887 20.4894C32.8145 19.4012 31.5182 18.8571 30 18.8571ZM36.1159 41.1429C36.9562 41.1429 37.6747 40.7971 38.2715 40.1055C38.8683 39.4139 39.1667 38.5748 39.1667 37.5882C39.1667 35.2764 38.7919 33.4531 38.0423 32.1183C37.2928 30.7835 36.2161 30.0822 34.8125 30.0145C33.428 31.2429 31.8238 31.8571 30 31.8571C28.1762 31.8571 26.572 31.2429 25.1875 30.0145C23.7839 30.0822 22.7072 30.7835 21.9577 32.1183C21.2081 33.4531 20.8333 35.2764 20.8333 37.5882C20.8333 38.5748 21.1317 39.4139 21.7285 40.1055C22.3253 40.7971 23.0438 41.1429 23.8841 41.1429H36.1159Z" fill="#121212"/>
</svg>
